<?xml version="1.0" encoding="UTF-8" standalone="no"?>
<!-- Created with Inkscape (http://www.inkscape.org/) -->

<svg
   xmlns:dc="http://purl.org/dc/elements/1.1/"
   xmlns:cc="http://creativecommons.org/ns#"
   xmlns:rdf="http://www.w3.org/1999/02/22-rdf-syntax-ns#"
   xmlns:svg="http://www.w3.org/2000/svg"
   xmlns="http://www.w3.org/2000/svg"
   xmlns:sodipodi="http://sodipodi.sourceforge.net/DTD/sodipodi-0.dtd"
   xmlns:inkscape="http://www.inkscape.org/namespaces/inkscape"
   width="744.09448819"
   height="1052.3622047"
   id="svg2"
   version="1.1"
   inkscape:version="0.48.4 r9939"
   sodipodi:docname="individual-workflow.svg">
  <defs
     id="defs4" />
  <sodipodi:namedview
     id="base"
     pagecolor="#ffffff"
     bordercolor="#666666"
     borderopacity="1.0"
     inkscape:pageopacity="0.0"
     inkscape:pageshadow="2"
     inkscape:zoom="0.7"
     inkscape:cx="16.659555"
     inkscape:cy="542.00824"
     inkscape:document-units="px"
     inkscape:current-layer="layer1"
     showgrid="false"
     inkscape:snap-nodes="true"
     inkscape:window-width="1916"
     inkscape:window-height="1005"
     inkscape:window-x="1680"
     inkscape:window-y="54"
     inkscape:window-maximized="0" />
  <metadata
     id="metadata7">
    <rdf:RDF>
      <cc:Work
         rdf:about="">
        <dc:format>image/svg+xml</dc:format>
        <dc:type
           rdf:resource="http://purl.org/dc/dcmitype/StillImage" />
        <dc:title></dc:title>
      </cc:Work>
    </rdf:RDF>
  </metadata>
  <g
     inkscape:label="Layer 1"
     inkscape:groupmode="layer"
     id="layer1">
    <text
       xml:space="preserve"
       style="font-size:83.82930756px;font-style:normal;font-weight:normal;line-height:125%;letter-spacing:0px;word-spacing:0px;fill:#000000;fill-opacity:1;stroke:none;font-family:Sans"
       x="89.837173"
       y="99.437363"
       id="text2985"
       sodipodi:linespacing="125%"
       transform="scale(0.94854638,1.0542447)"><tspan
         sodipodi:role="line"
         x="89.837173"
         y="99.437363"
         id="tspan3239">Isolate, Triage </tspan></text>
    <text
       xml:space="preserve"
       style="font-size:79.50253296px;font-style:normal;font-weight:normal;line-height:125%;letter-spacing:0px;word-spacing:0px;fill:#000000;fill-opacity:1;stroke:none;font-family:Sans"
       x="262.38824"
       y="377.03711"
       id="text2989"
       sodipodi:linespacing="125%"
       transform="scale(0.97974167,1.0206772)"><tspan
         sodipodi:role="line"
         x="262.38824"
         y="377.03711"
         id="tspan2993">Work</tspan></text>
    <text
       xml:space="preserve"
       style="font-size:79.90241241px;font-style:normal;font-weight:normal;line-height:125%;letter-spacing:0px;word-spacing:0px;fill:#000000;fill-opacity:1;stroke:none;font-family:Sans"
       x="125.83125"
       y="715.11511"
       id="text2997"
       sodipodi:linespacing="125%"
       transform="scale(0.96303802,1.0383806)"><tspan
         sodipodi:role="line"
         x="125.83125"
         y="715.11511"
         id="tspan3005">Update, Test</tspan></text>
    <text
       xml:space="preserve"
       style="font-size:77.858284px;font-style:normal;font-weight:normal;line-height:125%;letter-spacing:0px;word-spacing:0px;fill:#000000;fill-opacity:1;stroke:none;font-family:Sans"
       x="259.47769"
       y="959.81573"
       id="text3001"
       sodipodi:linespacing="125%"
       transform="scale(0.95947882,1.0422325)"><tspan
         sodipodi:role="line"
         id="tspan3003"
         x="259.47769"
         y="959.81573">Share</tspan></text>
    <path
       style="fill:#000000;fill-opacity:1;fill-rule:nonzero;stroke:none"
       id="path3019"
       d="m 480.35077,396.57344 c 3.86156,2.08239 8.06142,3.38028 11.7714,5.74776 2.8217,1.32445 5.29396,3.13571 7.84388,4.88875 2.5842,1.8466 5.29459,3.42067 7.30561,5.92038 1.6954,2.14231 3.55471,4.14474 5.28069,6.26078 1.3871,2.41874 3.29245,4.46002 4.65708,6.88621 1.56882,2.1479 2.92719,4.42202 4.43937,6.60466 1.55512,2.23271 3.06241,4.48365 4.48162,6.81339 1.81709,2.28805 3.45089,4.71424 5.10137,7.12246 1.92625,2.63744 3.52595,5.47834 5.31338,8.20124 1.55383,2.33867 3.10785,4.66529 4.56685,7.07196 1.70138,2.15302 3.21671,4.50762 4.40451,6.98368 1.36546,2.42662 2.72737,4.88159 3.83289,7.44036 1.27742,2.46995 2.63749,4.91141 3.73836,7.467 1.0951,2.89458 2.23111,5.70589 2.84413,8.75241 0.58242,3.58693 0.61299,7.23044 0.65413,10.85465 0.50742,3.00793 1.05486,5.88218 0.79283,8.9408 -0.45402,3.24096 -0.4968,6.51729 -0.82673,9.76795 -0.73102,3.16461 -1.29698,6.34012 -1.58762,9.57498 -0.2798,3.54033 -0.0689,7.08993 -0.65921,10.59961 -0.38501,3.07381 -1.46038,5.95761 -2.30579,8.91446 -0.99177,2.79256 -1.7645,5.67621 -2.8277,8.444 -1.04269,2.82274 -1.60913,5.77402 -2.49902,8.64778 -0.72789,2.98689 -1.80695,5.8588 -2.656,8.81262 -1.02645,3.23534 -1.80965,6.52375 -2.85884,9.7527 -0.721,2.96971 -1.94278,5.76114 -2.60656,8.74455 -0.62131,2.94799 -1.61566,5.78875 -2.91783,8.5012 -1.4939,2.27536 -2.69277,4.71441 -4.37202,6.86581 -1.05011,1.43854 -2.23659,2.78555 -3.50365,4.03798 0,0 -25.60008,10.75544 -25.60008,10.75544 l 0,0 c 1.07793,-1.3827 2.37386,-2.55706 3.61345,-3.79005 1.50706,-2.24036 3.35689,-4.20437 4.43309,-6.73291 1.89911,-2.15359 2.39834,-4.92782 3.42631,-7.54158 0.46467,-3.1537 1.5417,-6.01601 2.47175,-9.02101 0.91816,-3.29035 2.14721,-6.45009 2.8475,-9.80697 0.54381,-1.50048 0.7863,-3.02303 1.28636,-4.53391 0.29312,-0.88537 0.80686,-1.68964 1.08143,-2.58088 0.15933,-0.51673 0.20091,-1.06233 0.30178,-1.59358 0.77007,-2.98233 1.81724,-5.83784 2.3734,-8.87842 0.3399,-0.86324 0.82633,-1.66841 1.11942,-2.54853 0.61768,-1.85493 0.73886,-3.90094 1.88244,-5.57952 0.62818,-3.01748 1.98683,-5.74719 2.36409,-8.8149 0.81071,-3.41133 0.78766,-6.80404 0.84266,-10.30773 0.19675,-3.30234 0.49227,-6.61289 1.43922,-9.80058 0.81055,-3.10848 0.32027,-6.40854 0.86986,-9.57733 0.37807,-3.1084 0.26991,-5.63408 -0.56344,-8.71129 -0.0247,-3.46945 -0.0247,-6.95346 -0.47772,-10.39968 -0.49612,-2.88159 -1.57202,-5.49123 -2.59179,-8.21243 -1.06804,-2.56758 -2.47874,-4.98694 -3.73707,-7.46451 -1.05831,-2.53777 -2.45529,-4.93524 -3.78183,-7.33945 -1.12555,-2.40677 -2.6796,-4.61045 -4.26866,-6.73249 -1.45217,-2.38217 -2.9867,-4.69414 -4.50625,-7.02884 -1.71964,-2.73234 -3.32069,-5.53706 -5.26167,-8.12966 -1.68828,-2.44567 -3.39629,-4.87368 -5.21097,-7.22927 -1.40546,-2.28563 -2.88784,-4.49896 -4.41798,-6.69854 -1.51726,-2.27223 -3.0023,-4.55219 -4.55092,-6.80698 -1.28227,-2.27135 -3.10978,-4.18408 -4.41052,-6.45235 -1.76564,-2.08003 -3.53611,-4.15148 -5.25644,-6.26789 -1.93987,-2.20729 -4.61017,-3.55761 -6.94288,-5.30473 -2.43776,-1.78219 -5.03482,-3.27548 -7.64905,-4.78335 -3.64825,-2.1043 -7.58701,-3.64779 -11.50572,-5.17113 0,0 22.97318,-15.53508 22.97318,-15.53508 z"
       inkscape:connector-curvature="0" />
    <path
       style="fill:#000000;fill-opacity:1;fill-rule:nonzero;stroke:none"
       id="path3021"
       d="m 487.61343,594.40588 c 1.47804,4.60824 1.99672,9.43377 3.09139,14.12351 1.17007,3.38123 1.40722,6.96185 2.15783,10.42736 0.6138,2.93675 1.53949,5.75614 2.45172,8.60682 1.05016,2.56164 2.4052,4.9745 3.49116,7.51672 1.05882,2.38409 2.78082,4.28769 4.37848,6.30385 1.39074,2.46216 2.33311,3.76997 5.27437,3.27834 0.78997,-0.97488 2.05756,-1.04053 3.06896,-1.58855 1.25855,-0.68198 2.12729,-1.40346 3.5291,-1.90479 -59.70729,34.08094 1.52779,-1.00328 2.32265,-1.45333 7.56978,-4.28588 -15.05958,8.7111 -22.63022,12.99543 -0.39626,0.22408 0.70561,-0.58086 1.0987,-0.81051 8.29308,-4.84667 16.77137,-9.38262 24.9527,-14.41442 7.40249,-4.55276 -15.07693,8.65126 -22.61544,12.97688 9.02301,-6.24598 18.75381,-10.7055 28.24396,-16.72887 7.3399,-4.65868 -15.06019,8.69352 -22.61695,12.99397 -0.39856,0.22681 0.75921,-0.51404 1.13886,-0.771 67.79193,-38.56018 1.65065,-0.82946 2.43721,-1.31122 8.18328,-5.01198 16.60349,-9.6305 24.97277,-14.32745 0.42301,-0.23751 0.94686,-0.24497 1.38045,-0.46236 0.40594,-0.20319 0.7407,-0.52503 1.11104,-0.78753 0.41519,-0.20568 0.83038,-0.411 1.2456,-0.61653 -54.76233,31.37249 -3.12792,1.77813 2.7221,-1.51292 7.49802,-4.21808 -14.91713,8.57427 -22.40186,12.81575 -0.45382,0.25706 0.8541,-0.60113 1.30632,-0.86118 8.36383,-4.80921 16.73434,-9.60731 25.13917,-14.345 7.52349,-4.24089 -14.99668,8.56974 -22.49505,12.85457 67.76213,-39.04629 1.73841,-1.06404 2.62324,-1.56952 8.39747,-4.79736 16.81856,-9.55484 25.15521,-14.45645 7.407,-4.35509 -14.89079,8.57924 -22.36621,12.81659 -0.38492,0.21836 1.08358,-0.73376 2.52859,-1.67435 2.43619,-1.94061 4.99765,-3.71568 7.53667,-5.51776 1.79591,-1.46589 3.57752,-2.94533 5.20615,-4.59591 0,0 25.72318,-10.44561 25.72318,-10.44561 l 0,0 c -1.85801,1.43132 -3.24371,3.36176 -5.21475,4.66385 -2.22059,2.22122 -5.0113,3.69539 -7.50631,5.59171 -1.43589,1.38406 -0.73837,0.8749 -2.46733,1.88616 -8.33468,4.8748 -16.85353,9.44847 -25.01186,14.61119 -7.24332,4.5836 29.62478,-17.268 22.26486,-12.87285 -4.10258,2.44995 -58.85729,34.07142 -2.60191,1.56455 -83.38278,48.07075 15.37687,-9.00076 -3.99903,2.28155 -8.33982,4.85617 -16.83567,9.45479 -25.02571,14.55805 -0.89473,0.55751 65.20401,-37.63646 -2.75952,1.54622 -2.83624,1.59429 0.46659,-0.20916 -2.48285,1.2331 -0.41863,0.20468 -1.63076,0.90194 -1.22743,0.66871 7.51361,-4.34455 30.22302,-17.07773 22.55865,-13.00307 -3.72603,1.98082 -59.33065,34.12038 -2.44774,1.28225 -9.32846,5.08216 -6.73728,3.65534 -26.03153,15.15069 -7.46169,4.44559 14.99786,-8.76609 22.51582,-13.11648 1.9456,-1.12584 -4.98395,3.70136 -3.29189,2.36134 -82.9069,48.2912 15.3556,-9.00738 -3.48153,2.12875 -8.25688,4.88126 -17.00224,9.01362 -24.7986,14.59659 -0.75133,0.53811 65.07891,-37.54946 -2.46784,1.26591 -2.29023,1.23711 -4.75174,2.7116 -7.44201,2.45855 -2.96932,-0.68823 -5.07917,-2.56005 -6.51795,-5.22723 -1.78925,-2.19346 -3.55108,-4.3908 -4.74712,-6.98084 -1.08799,-2.63334 -2.52592,-5.10701 -3.60586,-7.74901 -0.90179,-2.92775 -1.93382,-5.78417 -2.5299,-8.80008 -0.85423,-3.45343 -0.8861,-7.08614 -2.05586,-10.48627 -1.0612,-4.59713 -1.32212,-9.39229 -3.1045,-13.81965 0,0 24.31785,-13.34822 24.31785,-13.34822 z"
       inkscape:connector-curvature="0" />
    <path
       style="fill:#000000;fill-opacity:1;fill-rule:nonzero;stroke:none"
       id="path3023"
       d="m 202.04618,651.82759 c -4.20121,-1.3548 -8.34422,-3.09381 -11.97842,-5.61695 -2.56199,-1.69718 -4.94832,-3.73689 -7.0258,-6.00208 -1.50143,-2.373 -3.40681,-4.44079 -4.77818,-6.89186 -1.55851,-2.15073 -2.91103,-4.42485 -4.41851,-6.60652 -1.49248,-2.36964 -2.57868,-4.96505 -3.96322,-7.39125 -1.29403,-2.62607 -2.73917,-5.15419 -3.65031,-7.94642 -1.42783,-2.66768 -1.88279,-5.63955 -2.71194,-8.50005 -0.77683,-2.88594 -1.71756,-5.70093 -2.63732,-8.54273 -0.58097,-3.05824 -1.6399,-5.98542 -2.34674,-9.01275 -0.76715,-2.72192 -2.02933,-5.23698 -3.06835,-7.85256 -1.03536,-2.90648 -2.17957,-5.71021 -2.79373,-8.74803 -1.08259,-2.83411 -1.48952,-5.84344 -2.27605,-8.75114 -1.12261,-3.12385 -1.60099,-6.3872 -1.88725,-9.67588 -0.24704,-3.68818 -0.24118,-7.38692 -0.24798,-11.08144 -0.1416,-3.57909 0.002,-7.08629 0.71042,-10.5964 0.37059,-3.12245 1.30665,-6.10183 2.08107,-9.13369 0.92871,-2.83045 1.6953,-5.73771 2.75721,-8.52457 0.95197,-2.77614 1.66638,-5.59026 3.15116,-8.14687 1.37903,-2.37733 2.57816,-4.85448 3.96176,-7.22743 1.46913,-2.30424 2.93412,-4.60849 4.38918,-6.92688 1.7039,-2.08587 2.88915,-4.50973 4.55212,-6.62627 1.68963,-2.39103 3.76344,-4.43345 6.13088,-6.15132 2.32573,-1.67341 4.43453,-3.59987 6.61903,-5.44258 1.81961,-2.04546 4.27952,-3.30623 6.37482,-5.02621 82.17713,-49.11539 -14.57812,9.98084 3.42263,-2.25119 0,0 25.90459,-9.98439 25.90459,-9.98439 l 0,0 c -16.02083,8.67078 -49.857,29.59602 -3.50818,2.01987 -2.23657,1.47486 -4.167,3.35019 -6.5436,4.62826 -1.84667,2.21629 -4.23839,4.02782 -6.54103,5.74159 -1.43991,1.2962 -3.25352,2.12569 -4.59957,3.53754 -0.31388,0.3294 -0.50325,0.76197 -0.81114,1.09679 -0.28569,0.31053 -0.63895,0.55177 -0.95843,0.8277 -1.50459,2.253 -3.34684,4.23915 -4.50636,6.72792 -1.92923,1.92678 -2.68507,4.57011 -4.58103,6.5153 -1.27589,2.46074 -2.73033,4.80225 -3.93303,7.28659 -1.45079,2.49471 -2.94642,4.7987 -3.34695,7.7588 -0.33942,0.86351 -0.82521,1.66923 -1.11629,2.55012 -0.6145,1.86011 -0.73229,3.91116 -1.84342,5.61011 -0.59034,3.08639 -1.8632,5.94341 -2.10622,9.09231 -0.69698,3.37961 -1.38253,6.63219 -1.01338,10.12543 9.8e-4,3.62667 -0.0131,7.2561 0.1753,10.87912 0.21798,3.11159 0.57452,6.21487 1.66925,9.16184 0.89634,2.96409 1.15354,6.10492 2.38215,8.98875 0.50267,2.89925 1.6018,5.52565 2.57757,8.28107 1.05768,2.75863 2.41204,5.38628 3.24768,8.23491 0.63032,2.96976 1.76802,5.78888 2.24591,8.79248 0.88936,2.86304 1.91299,5.66047 2.65007,8.56986 0.9014,2.83135 1.19808,5.8454 2.70444,8.48414 0.77948,2.63246 2.20985,4.95751 3.38597,7.42375 1.33167,2.3718 2.41623,4.88141 3.85584,7.19564 1.51343,2.27203 2.99199,4.55398 4.53238,6.81158 1.2578,2.24221 3.04139,4.13832 4.43105,6.30147 2.01349,2.04658 4.1807,3.97199 6.60233,5.52843 3.59111,2.26471 7.52757,3.91407 11.65091,4.95098 0,0 -22.97316,15.53511 -22.97316,15.53511 z"
       inkscape:connector-curvature="0" />
    <path
       style="fill:#000000;fill-opacity:1;fill-rule:nonzero;stroke:none"
       id="path3025"
       d="m 195.50292,415.86984 c 4.73092,-0.6226 9.48494,-1.01121 14.24946,-1.24972 4.11458,-0.0967 7.55457,0.0343 11.56533,-0.95001 3.31962,-0.77714 6.73468,-0.92335 10.12879,-1.03539 3.07794,-1.0574 6.28158,-1.47621 9.51018,-1.72267 3.53035,-0.43045 7.18683,0.26977 10.64036,-0.6032 3.04408,-0.84227 6.05323,-1.43296 9.13762,-0.57415 2.59199,2.05591 2.01638,4.70285 1.18291,7.45387 -1.10176,2.56744 -2.46617,5.00114 -3.63557,7.5351 -1.46539,2.43525 -2.35276,5.14546 -3.40423,7.77186 -1.12133,3.09087 -1.27941,6.3913 -1.41814,9.64211 -0.10702,3.69891 -0.0856,7.40002 -0.0788,11.10004 -0.11752,3.27806 0.82863,6.45506 1.30537,9.67623 0.33543,1.41319 0.7789,2.79648 1.17155,4.19445 0,0 -24.36781,13.20877 -24.36781,13.20877 l 0,0 c -0.41233,-1.51672 -0.88171,-3.01383 -1.31491,-4.52475 -0.44432,-3.35455 -1.47475,-6.63931 -1.43814,-10.03357 -0.009,-3.72635 -0.0309,-7.4531 0.0247,-11.17925 0.0801,-3.46787 0.15889,-6.97074 0.98597,-10.35851 0.84977,-2.81519 2.09037,-5.49794 3.17979,-8.21833 1.55901,-2.22989 2.42504,-4.91792 3.69515,-7.31574 0.32025,-0.44875 1.80413,-3.19005 1.28579,-3.04886 -2.88234,-0.15246 -5.65202,0.91178 -8.49436,1.2188 -3.56515,0.15395 -7.14415,0.0955 -10.69431,0.51334 -3.22074,0.42695 -6.3496,1.32978 -9.58658,1.59141 -3.33859,0.2196 -6.65147,0.62163 -9.91619,1.37489 -3.86284,0.57311 -7.7858,0.24885 -11.67433,0.55664 -4.76841,0.29237 -9.53867,0.70875 -14.23497,1.61479 0,0 22.19681,-16.63815 22.19681,-16.63815 z"
       inkscape:connector-curvature="0" />
    <path
       style="fill:#000000;fill-opacity:1;fill-rule:nonzero;stroke:none"
       id="path3027"
       d="m 369.35761,130.56488 c -0.96252,4.54821 -1.10876,9.20234 -2.00611,13.75912 -0.86686,3.50917 -1.29512,7.08547 -1.51905,10.68507 -0.0549,3.52823 -0.38429,7.09053 -0.002,10.60711 0.72143,3.2476 1.21134,6.52196 1.48224,9.8356 0.73143,2.96356 1.11662,6.01892 1.87732,8.97149 1.10132,3.12502 1.58847,6.38023 1.87806,9.66409 -0.095,3.31558 0.69933,6.49673 1.29415,9.72747 0.59916,3.53189 0.70551,7.11797 0.78416,10.69117 0.056,3.72886 0.0435,7.45827 0.0398,11.18741 -0.002,2.48994 -9.8e-4,1.24507 -0.002,3.73466 0,0 -24.64824,12.51362 -24.64824,12.51362 l 0,0 c 0.002,-2.48988 9.7e-4,-1.24496 0.002,-3.73483 0.002,-3.71138 0.0153,-7.42285 -0.0219,-11.13406 -0.0554,-3.43443 -0.11665,-6.88168 -0.62659,-10.28535 -0.57088,-3.32097 -1.54757,-6.56944 -1.39415,-9.97544 -0.22198,-3.11741 -0.59023,-6.22283 -1.67315,-9.1792 -0.90496,-3.09692 -1.15054,-6.36643 -2.08667,-9.46944 -0.22076,-3.2619 -0.62818,-6.49697 -1.42089,-9.67603 -0.58903,-3.65753 -0.19085,-7.39127 -0.20091,-11.08398 0.15735,-3.73467 0.43224,-7.47582 1.362,-11.1124 1.09071,-4.46838 1.48307,-8.99217 1.93367,-13.56811 0,0 24.95148,-12.15797 24.95148,-12.15797 z"
       inkscape:connector-curvature="0" />
    <path
       style="fill:#000000;fill-opacity:1;fill-rule:nonzero;stroke:none"
       id="path3029"
       d="m 336.1646,239.00763 c 2.91613,2.77654 6.04887,5.32798 8.89044,8.18064 2.73422,1.7381 4.89988,4.0135 7.16687,6.2918 1.8811,2.24745 3.78506,4.49466 6.22882,6.1511 2.23906,2.05613 5.08448,3.17692 7.44055,5.07935 2.20927,1.59492 4.7604,2.61588 7.04043,4.0773 1.86196,0.52478 4.7287,3.62194 6.45163,2.03111 7.98412,-5.60051 0.85358,-0.56264 -22.4249,12.50954 -0.28167,0.15793 0.5992,-0.27043 0.83662,-0.48887 0.83515,-0.76915 1.53993,-1.98552 2.13683,-2.93826 1.29142,-2.44791 2.54047,-4.91298 3.76869,-7.39369 1.07696,-2.56278 2.5503,-4.94185 4.37778,-7.03655 1.94866,-2.32803 3.57813,-4.89221 5.54732,-7.20308 2.04816,-2.20642 3.8183,-4.62476 5.66001,-6.99935 1.83077,-2.20144 3.41462,-4.56327 4.97705,-6.95865 1.05541,-1.46171 2.26159,-2.78875 3.41244,-4.17275 0,0 25.67039,-10.58896 25.67039,-10.58896 l 0,0 c -1.36498,1.09647 -2.52064,2.47395 -3.54215,3.88393 -2.04003,2.0474 -2.9111,4.89004 -5.07807,6.83197 -1.64034,2.50051 -3.41828,5.04441 -5.59138,7.10728 -1.77428,2.45465 -3.91604,4.61983 -5.51217,7.21537 -1.56333,2.13377 -3.55881,3.90116 -4.71222,6.3425 -0.92151,2.62735 -2.32818,5.09545 -3.69893,7.49993 -0.49232,1.39081 -1.14567,2.22129 -1.85119,3.44597 -0.22509,0.39078 -0.10768,1.02394 -0.49319,1.25939 -23.34554,14.25622 -15.33864,13.642 -25.87159,14.23563 -2.60529,-0.8178 -4.94356,-2.3114 -7.37218,-3.53274 -2.47711,-1.31983 -4.93562,-2.69541 -7.20701,-4.34972 -2.44673,-1.71101 -5.13946,-3.06473 -7.37918,-5.06373 -2.44124,-1.90194 -4.51049,-4.15576 -6.47562,-6.53863 -2.21028,-2.30916 -4.64145,-4.25735 -7.10423,-6.28729 -2.86418,-2.84359 -5.88836,-5.53485 -8.99075,-8.11629 0,0 23.69889,-14.47425 23.69889,-14.47425 z"
       inkscape:connector-curvature="0" />
    <path
       style="fill:#000000;fill-opacity:1;fill-rule:nonzero;stroke:none"
       id="path3031"
       d="m 358.25216,768.25967 c -0.37593,4.44268 -0.0278,8.8106 0.68224,13.19161 0.63443,3.4953 0.67468,7.04463 1.48576,10.50504 0.96196,3.17106 0.96388,6.50478 1.53905,9.73717 0.82708,3.16476 1.26184,6.4002 2.04221,9.57451 0.92079,3.70795 2.12782,7.31303 2.82408,11.07711 0.38333,3.75758 0.80373,7.47598 1.47769,11.19484 0.39965,3.47539 0.97463,6.86933 1.79864,10.26645 0.81819,3.43833 1.00785,6.97181 1.13542,10.48953 0.0956,3.71936 0.0814,7.44046 0.0781,11.16072 -9e-4,0.6226 -9.4e-4,1.24509 -0.002,1.86769 0,0 -24.6486,12.51278 -24.6486,12.51278 l 0,0 c 9e-4,-0.62232 9.6e-4,-1.24455 0.002,-1.86682 0.002,-3.69141 0.0219,-7.38326 -0.0479,-11.0742 -0.0913,-3.3391 -0.20463,-6.69844 -0.91639,-9.97529 -0.81117,-3.46096 -1.53753,-6.87925 -1.81394,-10.43469 -0.66296,-3.72966 -1.31587,-7.41721 -1.4876,-11.20999 -0.59463,-3.72339 -1.775,-7.25367 -2.74458,-10.88337 -0.82782,-3.20906 -1.34895,-6.45208 -2.14554,-9.66907 -0.7015,-3.18003 -0.55629,-6.4974 -1.49154,-9.64746 -0.86958,-3.54355 -1.00643,-7.13031 -1.50426,-10.73927 -0.69773,-4.49295 -1.11993,-8.95254 -1.01273,-13.50848 0,0 24.75017,-12.56881 24.75017,-12.56881 z"
       inkscape:connector-curvature="0" />
    <path
       style="fill:#000000;fill-opacity:1;fill-rule:nonzero;stroke:none"
       id="path3033"
       d="m 338.07487,880.13031 c 3.54607,2.71956 6.48282,6.09535 9.72385,9.14227 2.3528,2.22415 4.34077,4.69551 6.1207,7.3917 1.82431,1.95687 2.8572,4.45574 4.54846,6.51144 1.4081,2.31724 2.95731,4.51727 4.53385,6.72185 1.75089,1.78283 3.16364,3.91392 5.36738,5.17177 1.0321,0.82907 2.46475,2.20276 3.97447,1.61096 0.59601,-0.23378 1.04202,-0.74986 1.6092,-1.04631 0.38298,-0.12037 0.79548,-0.17036 1.14897,-0.36007 0.72636,-0.38991 2.78294,-1.76567 2.0686,-1.3543 -35.78409,20.60579 -28.69253,17.145 -20.60344,11.50294 2.20943,-1.63832 3.77709,-3.78679 5.30478,-6.03466 1.74323,-2.51285 3.20809,-5.1904 4.80484,-7.79111 1.39168,-2.44975 2.52839,-5.03461 3.89479,-7.49543 1.74548,-2.96443 3.36544,-5.97957 4.77146,-9.1178 1.24826,-2.77226 2.75396,-5.44188 3.83333,-8.285 0.76731,-2.88806 1.55654,-5.79103 2.76243,-8.53218 0.68852,-1.61541 0.39322,-0.84317 0.90501,-2.30931 0,0 25.27423,-11.61965 25.27423,-11.61965 l 0,0 c -0.68646,1.43003 -0.35663,0.63454 -0.93878,2.40677 -1.19705,2.66117 -2.43956,5.34465 -2.92375,8.24837 -0.78436,3.12972 -2.40472,5.79387 -3.67139,8.7352 -1.72177,2.94145 -2.6706,6.31962 -4.68868,9.12041 -1.28315,2.54413 -2.72133,4.99131 -3.86897,7.59396 -1.48014,2.73038 -3.16202,5.31371 -4.73182,7.98234 -1.55372,2.28431 -2.79879,4.92769 -5.01167,6.61624 -0.98897,1.14241 -0.715,1.0152 -1.99754,1.77276 -8.99085,5.31065 -18.02799,12.59784 -28.32467,15.92582 -2.7488,0.46328 -4.91557,-1.00965 -6.99669,-2.66156 -2.24329,-1.709 -4.05269,-3.86319 -5.87895,-5.99806 -1.57473,-2.15978 -3.04443,-4.37098 -4.47756,-6.62142 -1.65349,-2.1756 -2.86433,-4.6355 -4.6503,-6.71451 -1.67435,-2.51998 -3.53324,-4.83732 -5.70932,-6.95149 -2.99251,-3.01905 -5.80916,-6.31393 -9.50164,-8.51806 0,0 23.32882,-15.04388 23.32882,-15.04388 z"
       inkscape:connector-curvature="0" />
  </g>
</svg>
